<svg xmlns="http://www.w3.org/2000/svg" width="199" height="60" viewBox="0 0 199 60">
    <g fill="none" fill-rule="evenodd">
        <g fill="#FFF">
            <g>
                <g>
                    <g>
                        <path d="M5.937 0c.096 0 .184.05.236.128l.032.065L11.17 14.7c.056.163-.042.331-.198.37l-.07.01H9.496c-.097 0-.186-.05-.238-.13l-.03-.066-1.026-3.086H2.984L1.96 14.884c-.024.07-.072.126-.133.16l-.065.026-.071.01H.284c-.17 0-.297-.149-.283-.31l.015-.07L4.982.193C5.014.1 5.09.033 5.18.009L5.25 0h.687zm24.81 0c.135 0 .247.094.277.22l.007.066v1.227c0 .136-.093.249-.218.279l-.065.007-7.269-.001v4.78l5.037.001c.108 0 .201.06.25.15l.026.07.008.066v1.228c0 .135-.093.248-.219.278l-.065.007H23.48v4.902h7.269c.107 0 .2.06.249.15l.027.07.007.066v1.228c0 .135-.093.248-.218.278l-.065.007h-8.892c-.134 0-.247-.094-.276-.22l-.008-.065V.286c0-.136.094-.249.219-.278L21.856 0h8.892zm16.468 0C49.56 0 51.5 1.927 51.5 4.259c0 1.664-1.018 3.138-2.569 3.854l-.215.093-.126.046 3.253 6.412c.075.147.01.317-.124.385l-.06.022-.068.008h-1.465c-.077 0-.15-.031-.203-.086l-.045-.061-.7-1.296c-.466-.882-.908-1.764-2.138-4.262l-.423-.857h-2.704v6.277c0 .108-.06.202-.148.25l-.07.028-.066.007h-1.305c-.134 0-.246-.094-.276-.22l-.007-.065V.286c0-.136.093-.249.218-.278L42.323 0h4.892zM72.45 0c.134 0 .247.094.276.22l.008.066v1.227c0 .136-.094.249-.219.279l-.065.007-4.144-.001v12.996c0 .108-.06.202-.147.25l-.071.028-.065.007h-1.359c-.134 0-.246-.094-.276-.22l-.007-.065V1.798l-4.126.001c-.107 0-.2-.06-.249-.149l-.027-.071-.007-.066V.286c0-.136.093-.249.218-.278L62.255 0H72.45zm15.825 0c2.345 0 4.283 1.927 4.283 4.259 0 1.664-1.018 3.138-2.568 3.854l-.215.093-.126.046 3.253 6.412c.075.147.009.317-.124.385l-.06.022-.068.008h-1.465c-.078 0-.15-.031-.203-.086l-.045-.061-.7-1.296c-.467-.882-.908-1.764-2.139-4.262l-.422-.857H84.97v6.277c0 .108-.06.202-.147.25l-.071.028-.065.007h-1.305c-.134 0-.247-.094-.276-.22l-.008-.065V.286c0-.136.094-.249.219-.278L83.383 0h4.892zm16.952 0c.134 0 .246.094.276.22l.007.066v14.508c0 .135-.093.248-.218.278l-.065.007h-1.377c-.134 0-.246-.094-.276-.22l-.007-.065V.286c0-.136.093-.249.218-.278L103.85 0h1.377zm16.7 0c2.37 0 4.318 1.917 4.318 4.259 0 2.289-1.815 4.156-4.096 4.27l-.222.006-3.269-.001v6.26c0 .108-.059.202-.147.25l-.07.028-.066.007h-1.34c-.135 0-.247-.094-.277-.22l-.007-.065V.286c0-.136.093-.249.218-.278l.065-.008h4.893zM5.6 4.21l-1.963 5.806h3.912l-1.95-5.805zm41.615-2.307h-3.303v4.711h3.303c1.327 0 2.394-1.036 2.394-2.32 0-1.273-.97-2.298-2.221-2.385l-.173-.006zm41.06 0h-3.304v4.711h3.304c1.327 0 2.393-1.036 2.393-2.32 0-1.273-.969-2.298-2.22-2.385l-.173-.006zm33.652.018h-3.269v4.693h3.269c1.327 0 2.393-1.054 2.393-2.355 0-1.24-.97-2.247-2.221-2.333l-.172-.005z" transform="translate(-11 3) translate(0 -3) translate(11) translate(57 23)"/>
                    </g>
                    <g>
                        <path d="M13.502 0l.13.009.118.024c.233.063.435.213.564.422l.058.11.026.074 12.528 28.048c.037.088.061.18.074.304.004.274-.068.497-.23.687-.18.204-.437.32-.718.32l-.122-.006-.135-.027-12.27-3.504-12.323 3.504c-.275.076-.564.025-.794-.131l-.094-.074-.086-.086c-.178-.206-.257-.475-.218-.753l.023-.12.046-.128L12.594.66c.063-.192.181-.356.349-.478l.107-.068.126-.057.072-.023c.082-.023.168-.035.254-.035zm1.97 7.692l2.503 16.693c.01.39-.152.72-.454.906l-.106.057-.119.043-.344.098 7.411 2.106-8.892-19.903zm-3.944-.01L2.632 27.595l7.41-2.106-.34-.098c-.37-.106-.635-.423-.679-.808l-.006-.117.01-.12 2.501-16.664zm1.97-.379l-2.476 16.504 2.446.709 2.507-.713-2.476-16.5z" transform="translate(-11 3) translate(0 -3) translate(11) translate(15 15)"/>
                    </g>
                </g>
            </g>
        </g>
    </g>
<script xmlns="" type="text/javascript" src="chrome-extension://hejbmebodbijjdhflfknehhcgaklhano/../window/testing-library.js"/></svg>