<svg xmlns="http://www.w3.org/2000/svg" xmlns:xlink="http://www.w3.org/1999/xlink" width="30px" height="30px" viewBox="0 0 30 30" version="1.1">
    <title>BF184F35-072B-44CB-8620-9482E4297254</title>
    <g id="ðŸ¨-Hotel+" stroke="none" stroke-width="1" fill="none" fill-rule="evenodd">
        <g id="Curated-Hotel-0" transform="translate(-1087.000000, -12.000000)" fill="#FFFFFF">
            <g id="Hero" transform="translate(0.000000, -3.000000)">
                <g id="Group" transform="translate(1082.000000, 3.000000)">
                    <g id="Icons/Mode/-Dark" transform="translate(5.000000, 12.000000)">
                        <path d="M13.8698407,7.49789739 C14.0530944,7.49789739 14.2026618,7.56248949 14.3185429,7.69167368 C14.4344239,7.82085786 14.4923644,7.95811606 14.4923644,8.10344828 C14.4923644,8.18957107 14.4829322,8.27165685 14.4640679,8.34970563 C14.4452035,8.42775442 14.4034325,8.52598823 14.3387547,8.64440706 C14.1986195,8.91892347 14.0854333,9.29301934 13.9991963,9.7666947 C13.9129592,10.2403701 13.8698407,10.7597981 13.8698407,11.324979 C13.8698407,12.6544996 14.1406789,13.8023549 14.6823554,14.768545 C15.224032,15.7347351 15.9947757,16.4788898 16.9945865,17.0010093 C17.9943974,17.5231287 19.1815044,17.7841884 20.5559075,17.7841884 C20.8523474,17.7841884 21.1474398,17.7680404 21.4411848,17.7357443 C21.7349298,17.7034483 22.0138528,17.6563499 22.2779538,17.5944491 C22.5420547,17.5325484 22.7738168,17.4639193 22.97324,17.3885618 C23.0756465,17.3401177 23.1605361,17.310513 23.2279088,17.2997477 C23.2952815,17.2889823 23.3666966,17.2835997 23.442154,17.2835997 C23.5768994,17.2835997 23.7035601,17.3360807 23.8221361,17.4410429 C23.940712,17.546005 24,17.6899916 24,17.8730025 C24,17.9214466 23.9919153,17.98873 23.9757458,18.0748528 C23.9595764,18.1609756 23.9272375,18.2605551 23.8787291,18.3735913 C23.4583235,19.3263246 22.8896979,20.1485282 22.1728523,20.8402019 C21.4560068,21.5318755 20.6219328,22.0647603 19.6706302,22.4388562 C18.7193277,22.8129521 17.6912203,23 16.586308,23 C15.4274975,23 14.3589665,22.800841 13.3807149,22.4025231 C12.4024632,22.0042052 11.5522198,21.4444071 10.8299844,20.7231287 C10.107749,20.0018503 9.54855562,19.1540791 9.15240414,18.179815 C8.75625266,17.2055509 8.55817692,16.1343987 8.55817692,14.9663583 C8.55817692,13.9005887 8.76298993,12.8778806 9.17261595,11.8982338 C9.58224197,10.918587 10.152215,10.0560135 10.8825351,9.31051304 C11.6128552,8.56501262 12.452319,7.99848612 13.4009267,7.61093356 C13.5195026,7.56787216 13.6192142,7.53826745 13.7000615,7.52211943 C13.7809087,7.5059714 13.8375018,7.49789739 13.8698407,7.49789739 Z M6.6214825,18.2939066 L7.12254815,19.3078312 L8.242965,19.4704216 L7.43222375,20.2596519 L7.62361379,21.3740629 L6.6214825,20.8479094 L5.6193512,21.3740629 L5.81074125,20.2596519 L5,19.4704216 L6.12041685,19.3078312 L6.6214825,18.2939066 Z M19.3205009,7.51335939 L20.0003281,8.88901458 L21.520468,9.10961115 L20.4204844,10.1804094 L20.6801553,11.6924008 L19.3205009,10.9785353 L17.9608465,11.6924008 L18.2205174,10.1804094 L17.1205339,9.10961115 L18.6406737,8.88901458 L19.3205009,7.51335939 Z M6.86527591,7 L7.28283062,7.84493721 L8.21651133,7.98042919 L7.54089362,8.63812109 L7.70038533,9.56679695 L6.86527591,9.12833568 L6.0301665,9.56679695 L6.18965821,8.63812109 L5.5140405,7.98042919 L6.44772121,7.84493721 L6.86527591,7 Z" id="Combined-Shape"/>
                    </g>
                </g>
            </g>
        </g>
    </g>
<script xmlns="" type="text/javascript" src="chrome-extension://hejbmebodbijjdhflfknehhcgaklhano/../window/testing-library.js"/></svg>