<svg xmlns="http://www.w3.org/2000/svg" width="30" height="30" viewBox="0 0 30 30">
    <path d="M15 9.234a.743.743 0 0 0 .549-.233.75.75 0 0 0 .23-.543V6.776a.75.75 0 0 0-.23-.543A.743.743 0 0 0 15 6a.733.733 0 0 0-.54.233.75.75 0 0 0-.23.543v1.682a.75.75 0 0 0 .23.543.733.733 0 0 0 .54.233zm4.625 1.924a.753.753 0 0 0 .554-.225l1.201-1.19a.765.765 0 0 0 .217-.552.75.75 0 0 0-.225-.552.71.71 0 0 0-.545-.22.739.739 0 0 0-.545.229l-1.21 1.199a.754.754 0 0 0-.216.543c0 .213.072.397.216.552.15.144.334.216.553.216zm-9.255 0a.75.75 0 0 0 .774-.768c0-.218-.072-.4-.216-.543l-1.193-1.2a.775.775 0 0 0-.55-.223.677.677 0 0 0-.54.215.735.735 0 0 0-.233.552c0 .219.072.4.216.544l1.202 1.198a.72.72 0 0 0 .54.225zM15 19.239c.576 0 1.121-.112 1.634-.336a4.383 4.383 0 0 0 2.274-2.269 4.03 4.03 0 0 0 .337-1.638 4.03 4.03 0 0 0-.337-1.639 4.372 4.372 0 0 0-.921-1.35 4.322 4.322 0 0 0-1.353-.914A4.08 4.08 0 0 0 15 10.761a4.07 4.07 0 0 0-1.638.332c-.51.221-.961.526-1.353.914a4.274 4.274 0 0 0-.921 1.35 4.074 4.074 0 0 0-.333 1.639c0 .58.111 1.127.333 1.638.222.512.529.962.92 1.35.393.388.844.694 1.354.919.51.224 1.056.336 1.638.336zm8.23-3.467a.74.74 0 0 0 .54-.229.746.746 0 0 0 .23-.547.736.736 0 0 0-.23-.54.74.74 0 0 0-.54-.228h-1.685a.75.75 0 0 0-.55.229.736.736 0 0 0-.228.539c0 .212.076.395.229.547a.75.75 0 0 0 .549.229h1.686zm-14.766 0a.74.74 0 0 0 .54-.229.746.746 0 0 0 .23-.547.736.736 0 0 0-.23-.54.74.74 0 0 0-.54-.228H6.778a.75.75 0 0 0-.549.229.736.736 0 0 0-.229.539c0 .212.076.395.23.547a.75.75 0 0 0 .548.229h1.686zm12.367 5.804c.217 0 .4-.074.55-.224a.76.76 0 0 0 .216-.547.73.73 0 0 0-.217-.54l-1.21-1.198a.763.763 0 0 0-.549-.216c-.216 0-.4.072-.549.216a.76.76 0 0 0-.216.547.76.76 0 0 0 .216.548l1.22 1.199a.734.734 0 0 0 .54.215zm-11.667-.004a.738.738 0 0 0 .554-.22l1.201-1.19a.744.744 0 0 0 .225-.548.753.753 0 0 0-.77-.763.74.74 0 0 0-.544.216l-1.21 1.19a.745.745 0 0 0-.22.539.73.73 0 0 0 .22.548c.144.15.325.225.544.228zM15 24a.743.743 0 0 0 .549-.233.76.76 0 0 0 .23-.552v-1.673a.746.746 0 0 0-.23-.548.75.75 0 0 0-.549-.228.74.74 0 0 0-.54.228.746.746 0 0 0-.23.548v1.673a.76.76 0 0 0 .23.552A.733.733 0 0 0 15 24z" fill="#FFF" fill-rule="evenodd"/>
<script xmlns="" type="text/javascript" src="chrome-extension://hejbmebodbijjdhflfknehhcgaklhano/../window/testing-library.js"/></svg>