<svg xmlns="http://www.w3.org/2000/svg" width="30" height="30" viewBox="0 0 30 30">
    <g fill="none" fill-rule="evenodd">
        <g>
            <path fill="#000" d="M11.776 14.965c.268.264.296.68.08.976l-.071.085-1.746 1.775L20.25 17.8c.414 0 .75.336.75.75 0 .38-.282.693-.648.743l-.102.007-10.214.001 1.645 1.673c.264.269.285.686.065.977l-.074.084c-.268.264-.685.284-.977.064l-.083-.073-2.897-2.947c-.066-.067-.116-.143-.152-.224l-.034-.094-.022-.106c-.005-.034-.007-.07-.007-.105 0-.184.066-.352.176-.483l3.04-3.093c.29-.295.764-.3 1.06-.009zm7.529-7.014l.083.073 2.897 2.947c.066.067.116.143.152.224l.034.094.022.106c.005.034.007.07.007.105 0 .184-.066.352-.176.483l-3.04 3.093c-.29.295-.764.3-1.06.009-.268-.264-.296-.68-.08-.976l.071-.085 1.746-1.775-10.211.001c-.414 0-.75-.336-.75-.75 0-.38.282-.693.648-.743l.102-.007 10.214-.001-1.645-1.673c-.264-.269-.285-.686-.065-.977l.074-.084c.268-.264.685-.284.977-.064z"/>
            <circle cx="15" cy="15" r="20"/>
        </g>
    </g>
<script xmlns="" type="text/javascript" src="chrome-extension://hejbmebodbijjdhflfknehhcgaklhano/../window/testing-library.js"/></svg>